<svg width="162" height="26" viewBox="0 0 162 26" fill="none" xmlns="http://www.w3.org/2000/svg">
<path d="M31.8016 20.7712H38.8765V18.9324H31.8016V20.7712ZM32.4528 10.4511H37.7065C37.8583 10.4511 37.9911 10.3941 38.105 10.2801C38.2188 10.1661 38.2757 10.0331 38.2757 9.88109C38.2757 9.72891 38.2188 9.59503 38.105 9.47945C37.9911 9.36404 37.8583 9.30634 37.7065 9.30634H32.4528C32.2959 9.30634 32.1607 9.36378 32.0472 9.47866C31.9337 9.59354 31.877 9.72768 31.877 9.88109C31.877 10.0343 31.9337 10.1677 32.0472 10.2812C32.1607 10.3945 32.2959 10.4511 32.4528 10.4511ZM32.4528 7.7804H37.7065C37.8583 7.7804 37.9911 7.72366 38.105 7.61018C38.2188 7.4967 38.2757 7.36264 38.2757 7.20801C38.2757 7.0532 38.2188 6.91906 38.105 6.80558C37.9911 6.6921 37.8583 6.63535 37.7065 6.63535H32.4528C32.2959 6.63535 32.1607 6.69236 32.0472 6.80636C31.9337 6.92019 31.877 7.05303 31.877 7.20486C31.877 7.36159 31.9337 7.4967 32.0472 7.61018C32.1607 7.72366 32.2959 7.7804 32.4528 7.7804ZM42.5478 11.7645V10.0692H45.0428V7.01756H42.5478V5.32193H44.9485C45.4071 5.32193 45.8054 5.4763 46.1434 5.78504C46.4812 6.09361 46.6711 6.47091 46.7132 6.91695V7.70501H49.0458C49.2847 7.70501 49.4862 7.78723 49.6505 7.95167C49.8146 8.11611 49.8966 8.31794 49.8966 8.55716C49.8966 8.78324 49.8146 8.98034 49.6505 9.14846C49.4862 9.31641 49.2847 9.40038 49.0458 9.40038H46.7006V10.1884C46.6587 10.6303 46.4697 11.0035 46.1337 11.308C45.7976 11.6124 45.4025 11.7645 44.9485 11.7645H42.5478ZM38.3511 17.2371H36.6557V12.2899H40.8587V4.79656H31.9274C31.1919 4.79656 30.5702 5.05049 30.0624 5.55835C29.5545 6.0662 29.3006 6.68789 29.3006 7.42341V9.66306C29.3006 10.3986 29.5545 11.0203 30.0624 11.5281C30.5702 12.036 31.1919 12.2899 31.9274 12.2899H34.0289V17.2371H32.327V13.9792H31.8016C30.6333 13.9498 29.6407 13.5153 28.8238 12.6755C28.007 11.8356 27.5986 10.8315 27.5986 9.66306V7.42341C27.5986 6.23537 28.0225 5.21694 28.8703 4.36812C29.7179 3.5193 30.7369 3.09489 31.9274 3.09489H40.7518C41.25 3.09489 41.6739 3.26966 42.0235 3.61921C42.373 3.96875 42.5478 4.39264 42.5478 4.89086V12.1959C42.5478 12.6939 42.373 13.1178 42.0235 13.4675C41.6739 13.8171 41.25 13.9918 40.7518 13.9918H38.3511V17.2371ZM31.4454 22.4732C31.0703 22.4732 30.7533 22.3417 30.4945 22.0789C30.2356 21.816 30.1062 21.4989 30.1062 21.1277V18.5762C30.1062 18.2043 30.2356 17.8881 30.4945 17.6277C30.7533 17.3673 31.0703 17.2371 31.4454 17.2371H39.2327C39.6066 17.2371 39.9242 17.3673 40.1857 17.6277C40.4473 17.8881 40.5782 18.2043 40.5782 18.5762V21.1277C40.5782 21.4989 40.4473 21.816 40.1857 22.0789C39.9242 22.3417 39.6066 22.4732 39.2327 22.4732H31.4454Z" fill="black"/>
<path d="M131.377 7.22236V16.7704C131.377 17.2443 131.499 17.5901 131.742 17.8078C131.999 18.0255 132.338 18.1344 132.761 18.1344C133.106 18.1344 133.407 18.0831 133.664 17.9807C133.92 17.8654 134.157 17.7117 134.374 17.5196L134.835 19.0181C134.541 19.2742 134.176 19.4792 133.74 19.6329C133.318 19.7737 132.844 19.8442 132.319 19.8442C131.768 19.8442 131.262 19.7545 130.801 19.5752C130.34 19.3959 129.981 19.1077 129.725 18.7107C129.469 18.3009 129.335 17.7694 129.322 17.1162V7.7987L131.377 7.22236ZM134.682 10.0464V11.6602H127.478V10.0464H134.682Z" fill="black"/>
<path d="M119.701 10.0464L122.409 14.1576L122.794 14.2153L126.694 19.652H124.254L121.43 15.4256L120.988 15.2719L117.222 10.0464H119.701ZM126.636 10.0464L122.871 15.195L122.448 15.1758L119.374 19.652H117.03L121.122 14.1768L121.526 14.2153L124.273 10.0464H126.636Z" fill="black"/>
<path d="M111.908 19.8442C110.947 19.8442 110.102 19.6457 109.372 19.2486C108.642 18.8516 108.072 18.2817 107.662 17.5388C107.265 16.7832 107.066 15.8867 107.066 14.8492C107.066 13.8118 107.265 12.9217 107.662 12.1789C108.072 11.4232 108.635 10.8469 109.353 10.4499C110.07 10.0528 110.883 9.85431 111.792 9.85431C112.727 9.85431 113.521 10.0464 114.175 10.4306C114.828 10.8149 115.327 11.34 115.673 12.006C116.019 12.672 116.192 13.4276 116.192 14.2729C116.192 14.5034 116.185 14.7212 116.173 14.9261C116.16 15.131 116.141 15.3103 116.115 15.464H108.392V13.8887H115.212L114.194 14.1961C114.194 13.3251 113.976 12.6592 113.541 12.1981C113.105 11.7242 112.51 11.4873 111.754 11.4873C111.203 11.4873 110.723 11.6153 110.313 11.8715C109.903 12.1276 109.589 12.5119 109.372 13.0242C109.154 13.5237 109.045 14.1384 109.045 14.8685C109.045 15.5857 109.16 16.194 109.391 16.6935C109.622 17.193 109.948 17.5708 110.371 17.827C110.793 18.0831 111.293 18.2112 111.869 18.2112C112.51 18.2112 113.028 18.0896 113.425 17.8462C113.822 17.6029 114.136 17.2635 114.367 16.828L116 17.5965C115.769 18.0575 115.455 18.461 115.058 18.8068C114.674 19.1398 114.213 19.3959 113.675 19.5752C113.137 19.7545 112.548 19.8442 111.908 19.8442Z" fill="black"/>
<path d="M104.541 6.9726V19.652H102.101L97.2021 11.6602L95.9725 9.41243H95.9533L96.0302 11.468V19.652H94.1475V6.9726H96.5681L101.448 14.9453L102.696 17.2314H102.716L102.639 15.1566V6.9726H104.541Z" fill="black"/>
<path d="M90.0644 5.72386V16.9625C90.0644 17.4363 90.1476 17.7629 90.3141 17.9422C90.4806 18.1216 90.756 18.2112 91.1402 18.2112C91.3708 18.2112 91.5629 18.1984 91.7166 18.1728C91.8831 18.1344 92.088 18.0703 92.3313 17.9807L92.1008 19.5176C91.8831 19.62 91.6333 19.6969 91.3516 19.7481C91.0698 19.8121 90.788 19.8442 90.5063 19.8442C89.6482 19.8442 89.0142 19.6264 88.6043 19.191C88.2073 18.7427 88.0088 18.0575 88.0088 17.1354V5.72386H90.0644Z" fill="black"/>
<path d="M80.9086 9.85431C81.8436 9.85431 82.6696 10.0528 83.3869 10.4499C84.1041 10.8469 84.6612 11.4232 85.0583 12.1789C85.4681 12.9217 85.673 13.8118 85.673 14.8492C85.673 15.8867 85.4681 16.7832 85.0583 17.5388C84.6612 18.2817 84.1041 18.8516 83.3869 19.2486C82.6696 19.6457 81.8436 19.8442 80.9086 19.8442C79.9737 19.8442 79.1476 19.6457 78.4304 19.2486C77.7131 18.8516 77.1496 18.2817 76.7398 17.5388C76.3299 16.7832 76.125 15.8867 76.125 14.8492C76.125 13.8118 76.3299 12.9217 76.7398 12.1789C77.1496 11.4232 77.7131 10.8469 78.4304 10.4499C79.1476 10.0528 79.9737 9.85431 80.9086 9.85431ZM80.9086 11.4681C80.3323 11.4681 79.8392 11.6025 79.4293 11.8715C79.0323 12.1276 78.7249 12.5055 78.5072 13.005C78.2895 13.5045 78.1806 14.1192 78.1806 14.8492C78.1806 15.5665 78.2895 16.1812 78.5072 16.6935C78.7249 17.193 79.0323 17.5773 79.4293 17.8462C79.8392 18.1024 80.3323 18.2304 80.9086 18.2304C81.485 18.2304 81.9716 18.1024 82.3687 17.8462C82.7657 17.5773 83.0731 17.193 83.2908 16.6935C83.5085 16.1812 83.6174 15.5665 83.6174 14.8492C83.6174 14.1192 83.5085 13.5045 83.2908 13.005C83.0731 12.5055 82.7657 12.1276 82.3687 11.8715C81.9716 11.6025 81.485 11.4681 80.9086 11.4681Z" fill="black"/>
<path d="M69.5815 9.85431C70.5164 9.85431 71.3425 10.0528 72.0597 10.4499C72.7769 10.8469 73.3341 11.4232 73.7311 12.1789C74.1409 12.9217 74.3459 13.8118 74.3459 14.8492C74.3459 15.8867 74.1409 16.7832 73.7311 17.5388C73.3341 18.2817 72.7769 18.8516 72.0597 19.2486C71.3425 19.6457 70.5164 19.8442 69.5815 19.8442C68.6465 19.8442 67.8204 19.6457 67.1032 19.2486C66.386 18.8516 65.8225 18.2817 65.4126 17.5388C65.0028 16.7832 64.7979 15.8867 64.7979 14.8492C64.7979 13.8118 65.0028 12.9217 65.4126 12.1789C65.8225 11.4232 66.386 10.8469 67.1032 10.4499C67.8204 10.0528 68.6465 9.85431 69.5815 9.85431ZM69.5815 11.4681C69.0051 11.4681 68.512 11.6025 68.1022 11.8715C67.7052 12.1276 67.3978 12.5055 67.1801 13.005C66.9623 13.5045 66.8535 14.1192 66.8535 14.8492C66.8535 15.5665 66.9623 16.1812 67.1801 16.6935C67.3978 17.193 67.7052 17.5773 68.1022 17.8462C68.512 18.1024 69.0051 18.2304 69.5815 18.2304C70.1578 18.2304 70.6445 18.1024 71.0415 17.8462C71.4386 17.5773 71.7459 17.193 71.9637 16.6935C72.1814 16.1812 72.2903 15.5665 72.2903 14.8492C72.2903 14.1192 72.1814 13.5045 71.9637 13.005C71.7459 12.5055 71.4386 12.1276 71.0415 11.8715C70.6445 11.6025 70.1578 11.4681 69.5815 11.4681Z" fill="black"/>
<path d="M65.4383 6.9726V8.74003H61.0966V19.652H59.041V8.74003H54.6992V6.9726H65.4383Z" fill="black"/>
</svg>
