<svg xmlns="http://www.w3.org/2000/svg">
  <symbol id="arrow-back" viewBox="0 0 24 24">
    <path d="M12.0078 4.68652C12.0934 4.68658 12.1668 4.71285 12.249 4.79492C12.3313 4.88086 12.3574 4.95797 12.3574 5.04395C12.3573 5.13078 12.3308 5.20478 12.249 5.28711L5.8877 11.6484H19.2979C19.4194 11.6485 19.4945 11.6838 19.5586 11.7471C19.6207 11.8084 19.6553 11.8801 19.6553 12C19.6553 12.1199 19.6207 12.1916 19.5586 12.2529C19.4945 12.3162 19.4194 12.3515 19.2979 12.3516H5.8877L12.2432 18.707V18.7061C12.3254 18.7885 12.3537 18.8653 12.3545 18.957V18.958C12.355 19.0245 12.3404 19.0829 12.2988 19.1426L12.2471 19.2041C12.1671 19.2851 12.0939 19.3113 12.0049 19.3105C11.9104 19.3096 11.8321 19.2796 11.749 19.1973L4.80078 12.249C4.74762 12.1949 4.72192 12.1527 4.70996 12.124V12.123C4.69485 12.0867 4.68652 12.0466 4.68652 11.999C4.68655 11.9514 4.69516 11.9123 4.70996 11.877V11.876C4.72183 11.8475 4.74729 11.8051 4.80078 11.751L11.751 4.80078C11.8414 4.71356 11.9211 4.68652 12.0078 4.68652Z" fill="#000" stroke="#000"/>
  </symbol>
  <symbol id="arrow-forward" viewBox="0 0 24 24">
    <path d="M11.9951 4.68945C12.0661 4.69012 12.1279 4.70677 12.1895 4.75L12.251 4.80273L19.1992 11.751C19.2524 11.8051 19.2781 11.8473 19.29 11.876V11.877C19.3052 11.9133 19.3135 11.9534 19.3135 12.001C19.3134 12.0486 19.3048 12.0877 19.29 12.123V12.124C19.2782 12.1525 19.2527 12.1948 19.1992 12.249L12.2451 19.1973C12.1538 19.2875 12.0752 19.3135 11.9922 19.3135C11.9115 19.3134 11.8393 19.2889 11.7559 19.2031L11.751 19.1982L11.6992 19.1377C11.6571 19.0781 11.6426 19.02 11.6426 18.9551C11.6426 18.8904 11.6573 18.8328 11.6992 18.7734L11.751 18.7129L18.1123 12.3516H4.70215C4.58005 12.3515 4.50781 12.3164 4.44727 12.2559H4.44629C4.38542 12.195 4.35059 12.122 4.35059 12C4.35059 11.878 4.38542 11.805 4.44629 11.7441H4.44727C4.50782 11.6836 4.58005 11.6485 4.70215 11.6484H18.1123L11.7568 5.29297C11.6955 5.23162 11.6637 5.17322 11.6514 5.1084L11.6455 5.04102C11.6446 4.95107 11.6708 4.87748 11.751 4.79688L11.752 4.7959C11.8321 4.71531 11.9055 4.68868 11.9951 4.68945Z" fill="#000" stroke="#000"/>
  </symbol>
  <symbol id="close" viewBox="0 0 24 24">
    <path d="M17.5996 5.92499C17.7639 5.92499 17.8659 5.97349 17.9463 6.05389C18.0265 6.1342 18.0751 6.23569 18.0752 6.3996C18.0752 6.5638 18.0266 6.66589 17.9463 6.74628L12.6924 12.0002L13.0459 12.3537L17.9463 17.2531C18.0267 17.3335 18.0752 17.4356 18.0752 17.5998C18.0752 17.7641 18.0267 17.8661 17.9463 17.9465C17.8659 18.0269 17.7639 18.0754 17.5996 18.0754C17.4355 18.0753 17.3333 18.0268 17.2529 17.9465L12.3535 13.0461L12 12.6926L6.74609 17.9465C6.66571 18.0268 6.56362 18.0754 6.39941 18.0754C6.23551 18.0753 6.13402 18.0267 6.05371 17.9465C5.97331 17.8661 5.9248 17.7641 5.9248 17.5998C5.92484 17.4356 5.97334 17.3335 6.05371 17.2531L11.3066 12.0002L10.9531 11.6467L6.05371 6.74628C5.97331 6.66587 5.9248 6.56387 5.9248 6.3996C5.92488 6.23556 5.97337 6.13423 6.05371 6.05389C6.13405 5.97356 6.23537 5.92506 6.39941 5.92499C6.56368 5.92499 6.66569 5.97349 6.74609 6.05389L11.6465 10.9533L12 11.3068L17.2529 6.05389C17.3333 5.97352 17.4355 5.92503 17.5996 5.92499Z" fill="#000" stroke="#000"/>
  </symbol>
  <symbol id="menu" viewBox="0 0 24 24">
    <path d="M3.70234 18.2212C3.46184 18.2212 3.25975 18.139 3.09609 17.9745C2.93242 17.81 2.85059 17.6049 2.85059 17.3592C2.85059 17.1176 2.93242 16.9159 3.09609 16.7542C3.25975 16.5927 3.46184 16.512 3.70234 16.512H20.2978C20.5383 16.512 20.7414 16.5942 20.9071 16.7587C21.0728 16.9232 21.1556 17.1263 21.1556 17.368C21.1556 17.6137 21.0728 17.8172 20.9071 17.9787C20.7414 18.1404 20.5383 18.2212 20.2978 18.2212H3.70234ZM3.70234 12.8517C3.46184 12.8517 3.25975 12.7694 3.09609 12.6047C2.93242 12.4402 2.85059 12.2372 2.85059 11.9955C2.85059 11.754 2.93242 11.5524 3.09609 11.3907C3.25975 11.2291 3.46184 11.1482 3.70234 11.1482H20.2978C20.5383 11.1482 20.7414 11.2306 20.9071 11.3952C21.0728 11.5597 21.1556 11.7628 21.1556 12.0045C21.1556 12.246 21.0728 12.4476 20.9071 12.6092C20.7414 12.7709 20.5383 12.8517 20.2978 12.8517H3.70234ZM3.70234 7.488C3.46184 7.488 3.25975 7.40575 3.09609 7.24125C2.93242 7.07675 2.85059 6.87166 2.85059 6.626C2.85059 6.38433 2.93242 6.18275 3.09609 6.02125C3.25975 5.85958 3.46184 5.77875 3.70234 5.77875H20.2978C20.5383 5.77875 20.7414 5.861 20.9071 6.0255C21.0728 6.19 21.1556 6.39308 21.1556 6.63475C21.1556 6.88041 21.0728 7.08408 20.9071 7.24575C20.7414 7.40725 20.5383 7.488 20.2978 7.488H3.70234Z" fill="#000"/>
  </symbol>
  <symbol id="logout" viewBox="0 0 24 24">
    <path d="M4.55384 21.1495C4.09384 21.1495 3.695 20.9806 3.35734 20.6428C3.0195 20.3051 2.85059 19.9063 2.85059 19.4463V4.55376C2.85059 4.0921 3.0195 3.69185 3.35734 3.35301C3.695 3.01401 4.09384 2.84451 4.55384 2.84451H11.1593C11.3997 2.84451 11.6017 2.92793 11.7653 3.09476C11.929 3.26176 12.0108 3.46585 12.0108 3.70701C12.0108 3.94835 11.929 4.14985 11.7653 4.31151C11.6017 4.47301 11.3997 4.55376 11.1593 4.55376H4.55384V19.4463H11.1593C11.3997 19.4463 11.6017 19.5285 11.7653 19.693C11.929 19.8575 12.0108 20.0606 12.0108 20.3023C12.0108 20.5439 11.929 20.7455 11.7653 20.907C11.6017 21.0687 11.3997 21.1495 11.1593 21.1495H4.55384ZM17.8918 12.8518H9.81584C9.5755 12.8518 9.3735 12.7694 9.20984 12.6048C9.04617 12.4403 8.96434 12.2372 8.96434 11.9955C8.96434 11.754 9.04617 11.5524 9.20984 11.3908C9.3735 11.2291 9.5755 11.1483 9.81584 11.1483H17.8418L15.9186 9.22501C15.7486 9.05418 15.6678 8.8541 15.6761 8.62476C15.6844 8.39526 15.7736 8.19651 15.9436 8.02851C16.1134 7.85668 16.3158 7.77176 16.5508 7.77376C16.7857 7.77576 16.9894 7.86168 17.1621 8.03151L20.5588 11.4283C20.7247 11.5996 20.8076 11.7988 20.8076 12.026C20.8076 12.2532 20.7247 12.4518 20.5588 12.6218L17.1871 15.9935C17.0204 16.1633 16.8223 16.2451 16.5928 16.2388C16.3632 16.2324 16.1602 16.1443 15.9838 15.9745C15.8203 15.8045 15.7375 15.6017 15.7353 15.366C15.7332 15.1302 15.8193 14.9268 15.9936 14.756L17.8918 12.8518Z" fill="#000"/>
  </symbol>
  <symbol id="manage-accounts" viewBox="0 0 24 24">
    <path d="M9.99884 11.7973C8.85417 11.7973 7.91834 11.4338 7.19134 10.7068C6.46417 9.9796 6.10059 9.04368 6.10059 7.89901C6.10059 6.75434 6.46417 5.81809 7.19134 5.09026C7.91834 4.36226 8.85417 3.99826 9.99884 3.99826C11.1435 3.99826 12.0808 4.36226 12.8106 5.09026C13.5406 5.81809 13.9056 6.75434 13.9056 7.89901C13.9056 9.04368 13.5406 9.9796 12.8106 10.7068C12.0808 11.4338 11.1435 11.7973 9.99884 11.7973ZM1.85059 18.424V17.6165C1.85059 16.9888 2.01042 16.4233 2.33009 15.92C2.64959 15.4168 3.085 15.0383 3.63634 14.7843C4.60167 14.3549 5.59684 14.0029 6.62184 13.7283C7.64684 13.4536 8.69667 13.3163 9.77134 13.3163C10.0165 13.3163 10.2208 13.3981 10.3841 13.5618C10.5473 13.7254 10.6288 13.928 10.6288 14.1695C10.6288 14.4152 10.546 14.6203 10.3803 14.7848C10.2147 14.9493 10.0117 15.0315 9.77134 15.0315C8.8245 15.0315 7.89759 15.1452 6.99059 15.3725C6.08359 15.5998 5.20334 15.9269 4.34984 16.3538C4.11917 16.4858 3.92884 16.6643 3.77884 16.8893C3.62884 17.1144 3.55384 17.3646 3.55384 17.6398V18.424H9.80234C10.0427 18.424 10.2447 18.5063 10.4083 18.6708C10.572 18.8353 10.6538 19.0383 10.6538 19.28C10.6538 19.5217 10.572 19.7233 10.4083 19.8848C10.2447 20.0464 10.0427 20.1273 9.80234 20.1273H3.55384C3.08134 20.1273 2.67934 19.9604 2.34784 19.6268C2.01634 19.2931 1.85059 18.8922 1.85059 18.424ZM16.6598 20.5385L16.4908 19.4815C16.2155 19.4022 15.936 19.2853 15.6523 19.131C15.3687 18.9767 15.1308 18.8015 14.9386 18.6055L14.0126 18.7995C13.8674 18.8368 13.7293 18.8277 13.5981 18.772C13.4669 18.7165 13.3645 18.626 13.2908 18.5005L13.1373 18.2385C13.0483 18.0933 13.0163 17.9461 13.0413 17.7968C13.0663 17.6474 13.1348 17.5188 13.2468 17.4108L14.0538 16.6538C14.0165 16.5158 13.9988 16.3164 14.0008 16.0558C14.0028 15.7951 14.0205 15.598 14.0538 15.4645L13.2408 14.6945C13.1332 14.6042 13.0668 14.482 13.0416 14.328C13.0164 14.1738 13.0478 14.0323 13.1356 13.9033L13.2908 13.5918C13.3647 13.4648 13.4619 13.378 13.5826 13.3315C13.7033 13.2852 13.8363 13.2787 13.9816 13.312L14.9386 13.506C15.1308 13.314 15.3687 13.1398 15.6523 12.9835C15.936 12.8272 16.2155 12.7113 16.4908 12.6358L16.6598 11.5848C16.694 11.3998 16.7765 11.2497 16.9073 11.1345C17.0382 11.0195 17.1908 10.962 17.3651 10.962H17.5903C17.7602 10.962 17.9102 11.0198 18.0403 11.1355C18.1705 11.2512 18.2542 11.3989 18.2913 11.5788L18.4623 12.635C18.7325 12.711 19.0104 12.8272 19.2961 12.9835C19.5818 13.1398 19.8203 13.314 20.0118 13.506L20.9446 13.312C21.0859 13.2787 21.2228 13.2888 21.3551 13.3425C21.4874 13.3963 21.5892 13.4878 21.6603 13.6168L21.8131 13.871C21.9026 14.0215 21.9338 14.1704 21.9068 14.3178C21.8798 14.4649 21.8103 14.5925 21.6983 14.7005L20.8913 15.4635C20.9327 15.6002 20.9523 15.7982 20.9503 16.0575C20.9483 16.317 20.9287 16.5158 20.8913 16.6538L21.6966 17.409C21.8098 17.5055 21.8798 17.6316 21.9068 17.7873C21.9338 17.9429 21.9037 18.085 21.8163 18.2135L21.6603 18.5255C21.5857 18.6542 21.4873 18.7403 21.3651 18.784C21.2428 18.8277 21.1089 18.8328 20.9636 18.7995L20.0126 18.6055C19.8206 18.8015 19.5818 18.9767 19.2961 19.131C19.0104 19.2853 18.7318 19.4022 18.4603 19.4815L18.2913 20.5325C18.2537 20.7162 18.1691 20.8649 18.0376 20.9788C17.9061 21.0926 17.7547 21.1495 17.5833 21.1495H17.3633C17.192 21.1495 17.0403 21.0925 16.9083 20.9785C16.7763 20.8647 16.6935 20.718 16.6598 20.5385ZM17.4756 18.0228C18.0629 18.0228 18.5371 17.8424 18.8981 17.4818C19.2593 17.1211 19.4398 16.6458 19.4398 16.0558C19.4398 15.4658 19.2593 14.9903 18.8981 14.6295C18.5369 14.2688 18.0625 14.0885 17.4748 14.0885C16.8873 14.0885 16.4123 14.2691 16.0496 14.6303C15.6869 14.9913 15.5056 15.4654 15.5056 16.0528C15.5056 16.6448 15.6871 17.1211 16.0501 17.4818C16.4131 17.8424 16.8883 18.0228 17.4756 18.0228ZM9.99884 10.094C10.6337 10.094 11.1587 9.88685 11.5738 9.47251C11.9888 9.05801 12.1963 8.53318 12.1963 7.89801C12.1963 7.26118 11.9892 6.73593 11.5748 6.32226C11.1607 5.90859 10.6362 5.70176 10.0013 5.70176C9.3665 5.70176 8.8415 5.90868 8.42634 6.32251C8.01134 6.73651 7.80384 7.26068 7.80384 7.89501C7.80384 8.53118 8.011 9.05668 8.42534 9.47151C8.8395 9.88651 9.364 10.094 9.99884 10.094Z" fill="#000"/>
  </symbol>
  <symbol id="keyboard-arrow-down" viewBox="0 0 24 24">
    <path d="M7.08691 9.02344C7.18774 9.02344 7.26471 9.05385 7.34277 9.13184L11.6455 13.459L11.999 13.8145L16.6816 9.13184C16.7593 9.05424 16.8257 9.03227 16.9062 9.03516C17.0005 9.0386 17.0819 9.07117 17.168 9.15723C17.246 9.23531 17.2764 9.31223 17.2764 9.41309C17.2763 9.51371 17.2458 9.59001 17.168 9.66797L12.249 14.5869C12.1949 14.6411 12.1522 14.667 12.124 14.6787C12.0885 14.6935 12.0486 14.7021 12 14.7021C11.9755 14.7021 11.9532 14.6993 11.9326 14.6953L11.875 14.6787L11.8223 14.6484C11.8015 14.634 11.7779 14.6138 11.751 14.5869L6.80664 9.64355C6.7328 9.56972 6.70662 9.50009 6.70996 9.40527C6.71375 9.29797 6.74977 9.2141 6.83203 9.13184C6.90996 9.05403 6.98632 9.02351 7.08691 9.02344Z" fill="#000" stroke="#000"/>
  </symbol>
  <symbol id="keyboard-arrow-up" viewBox="0 0 24 24">
    <path d="M12 8.7041C12.0938 8.7041 12.1699 8.73239 12.25 8.8125L17.1934 13.7568C17.2753 13.8388 17.3018 13.9127 17.3018 14C17.3017 14.0872 17.2753 14.1612 17.1934 14.2432C17.1153 14.3212 17.0383 14.3516 16.9375 14.3516C16.8369 14.3515 16.7605 14.321 16.6826 14.2432L16.6816 14.2422L12.3525 9.93848L11.999 9.58691L7.31836 14.2676C7.24062 14.3453 7.17439 14.3672 7.09375 14.3643C6.99948 14.3608 6.91809 14.3292 6.83203 14.2432C6.75392 14.165 6.72363 14.0882 6.72363 13.9873C6.72364 13.8864 6.75392 13.8096 6.83203 13.7314L11.751 8.8125C11.831 8.7325 11.9063 8.70418 12 8.7041Z" fill="#000" stroke="#000"/>
  </symbol>
  <symbol id="facebook" viewBox="0 0 24 24">
    <path d="M22 12.3038C22 6.74719 17.5229 2.24268 12 2.24268C6.47715 2.24268 2 6.74719 2 12.3038C2 17.3255 5.65684 21.4879 10.4375 22.2427V15.2121H7.89844V12.3038H10.4375V10.0872C10.4375 7.56564 11.9305 6.1728 14.2146 6.1728C15.3088 6.1728 16.4531 6.36931 16.4531 6.36931V8.84529H15.1922C13.95 8.84529 13.5625 9.6209 13.5625 10.4166V12.3038H16.3359L15.8926 15.2121H13.5625V22.2427C18.3432 21.4879 22 17.3257 22 12.3038Z" fill="currentColor"/>
  </symbol>
  <symbol id="instagram" viewBox="0 0 24 24">
    <path d="M12.0047 4.86596C14.409 4.86596 14.6936 4.87665 15.639 4.91883C16.5181 4.95764 16.9922 5.105 17.3089 5.22817C17.7273 5.39015 18.0294 5.58699 18.3421 5.8997C18.6587 6.21635 18.8516 6.51499 19.017 6.93344C19.1401 7.25008 19.2875 7.72758 19.3263 8.60328C19.3685 9.55265 19.3792 9.83724 19.3792 12.2382C19.3792 14.6392 19.3685 14.9272 19.3263 15.8732C19.2875 16.7523 19.1401 17.2264 19.017 17.543C18.855 17.9615 18.6587 18.2635 18.3454 18.5762C18.0288 18.8928 17.7301 19.0858 17.3123 19.2511C16.9956 19.3743 16.5176 19.5216 15.6424 19.5604C14.6931 19.6026 14.4085 19.6133 12.0075 19.6133C9.60648 19.6133 9.31852 19.6026 8.37252 19.5604C7.49345 19.5216 7.01932 19.3743 6.70268 19.2511C6.28423 19.0891 5.98221 18.8928 5.66894 18.5796C5.3523 18.2629 5.15938 17.9643 4.99403 17.5464C4.87086 17.2298 4.72351 16.7517 4.6847 15.8766C4.64252 14.9272 4.63183 14.6426 4.63183 12.2416C4.63183 9.84061 4.64252 9.55265 4.6847 8.60665C4.72351 7.72758 4.87086 7.25346 4.99403 6.93681C5.15601 6.51837 5.35286 6.21635 5.66557 5.90308C5.98221 5.58643 6.28086 5.39352 6.6993 5.22817C7.01595 5.105 7.49345 4.95764 8.36914 4.91883C9.31458 4.87665 9.59973 4.86596 12.0041 4.86596H12.0047ZM12.0047 3.24562C9.56148 3.24562 9.25609 3.2563 8.29603 3.29849C7.33991 3.34067 6.68243 3.49534 6.11326 3.71693C5.51934 3.94865 5.01653 4.25461 4.51766 4.75742C4.01485 5.25685 3.70889 5.7591 3.47717 6.34964C3.25558 6.92275 3.10091 7.57629 3.05873 8.53241C3.01655 9.49585 3.00586 9.80124 3.00586 12.2444C3.00586 14.6876 3.01655 14.993 3.05873 15.953C3.10091 16.9092 3.25558 17.5666 3.47717 18.1358C3.70945 18.7297 4.01485 19.2325 4.51766 19.7314C5.01653 20.2303 5.51934 20.5402 6.10988 20.7685C6.68299 20.9901 7.33653 21.1448 8.29265 21.187C9.25215 21.2292 9.55811 21.2398 12.0013 21.2398C14.4445 21.2398 14.7504 21.2292 15.7099 21.187C16.666 21.1448 17.3235 20.9901 17.8927 20.7685C18.4832 20.5402 18.986 20.2309 19.4849 19.7314C19.9838 19.232 20.2937 18.7297 20.522 18.1392C20.7436 17.5661 20.8983 16.9125 20.9405 15.9564C20.9826 14.9969 20.9933 14.691 20.9933 12.2478C20.9933 9.80462 20.9826 9.49922 20.9405 8.53916C20.8983 7.58304 20.7436 6.92557 20.522 6.35639C20.3004 5.75853 19.9945 5.25629 19.4922 4.75685C18.9934 4.25798 18.4905 3.94809 17.9 3.71974C17.3269 3.49815 16.6733 3.34348 15.7172 3.3013C14.7544 3.25574 14.4484 3.24506 12.0052 3.24506L12.0047 3.24562Z" fill="currentColor"/>
    <path d="M12.0054 7.62177C9.45366 7.62177 7.38281 9.69205 7.38281 12.2443C7.38281 14.7966 9.4531 16.8669 12.0054 16.8669C14.5577 16.8669 16.628 14.7966 16.628 12.2443C16.628 9.69261 14.5577 7.62177 12.0054 7.62177ZM12.0054 15.2426C10.3496 15.2426 9.0071 13.9001 9.0071 12.2443C9.0071 10.5886 10.3496 9.24605 12.0054 9.24605C13.6612 9.24605 15.0037 10.5886 15.0037 12.2443C15.0037 13.9001 13.6612 15.2426 12.0054 15.2426Z" fill="currentColor"/>
    <path d="M17.8891 7.4391C17.8891 8.03527 17.4059 8.51839 16.8098 8.51839C16.2136 8.51839 15.7305 8.03527 15.7305 7.4391C15.7305 6.84293 16.2136 6.3598 16.8098 6.3598C17.4059 6.3598 17.8891 6.84293 17.8891 7.4391Z" fill="currentColor"/>
  </symbol>
  <symbol id="relume" viewBox="0 0 24 24">
    <path fill-rule="evenodd" clip-rule="evenodd" d="M20.73 7.12L20.59 6.87C20.4094 6.56769 20.1547 6.31643 19.85 6.14L13.14 2.27C12.8362 2.09375 12.4913 2.00062 12.14 2H11.85C11.4987 2.00062 11.1538 2.09375 10.85 2.27L4.14 6.15C3.83697 6.32526 3.58526 6.57697 3.41 6.88L3.27 7.13C3.09375 7.43384 3.00062 7.77874 3 8.13V15.88C3.00062 16.2313 3.09375 16.5762 3.27 16.88L3.41 17.13C3.58979 17.4295 3.84049 17.6802 4.14 17.86L10.86 21.73C11.1623 21.9099 11.5082 22.0033 11.86 22H12.14C12.4913 21.9994 12.8362 21.9063 13.14 21.73L19.85 17.85C20.156 17.6787 20.4087 17.426 20.58 17.12L20.73 16.87C20.9041 16.5653 20.9971 16.221 21 15.87V8.12C20.9994 7.76874 20.9063 7.42384 20.73 7.12ZM11.85 4H12.14L18 7.38L12 10.84L6 7.38L11.85 4ZM13 19.5L18.85 16.12L19 15.87V9.11L13 12.58V19.5Z" fill="#000"/>
  </symbol>
  <symbol id="service-toolbox" viewBox="0 0 24 24">
    <path d="M7.57509 5.61949V4.34449C7.57509 3.91232 7.72759 3.54232 8.03259 3.23449C8.33759 2.92665 8.707 2.77274 9.14084 2.77274H14.8093C15.2432 2.77274 15.6126 2.92665 15.9176 3.23449C16.2226 3.54232 16.3751 3.91232 16.3751 4.34449V5.61949H17.9751C18.2991 5.61949 18.6 5.69932 18.8778 5.85899C19.1557 6.01849 19.3589 6.2519 19.4876 6.55924L21.9256 12.3412C22.0209 12.5359 22.0831 12.7354 22.1121 12.9397C22.1411 13.1441 22.1556 13.3484 22.1556 13.5527V18.4462C22.1556 18.9187 21.9893 19.3207 21.6566 19.6522C21.3239 19.9837 20.9205 20.1495 20.4463 20.1495H3.55384C3.08134 20.1495 2.67934 19.9837 2.34784 19.6522C2.01634 19.3207 1.85059 18.9187 1.85059 18.4462V13.5527C1.85059 13.3484 1.86509 13.1441 1.89409 12.9397C1.92309 12.7354 1.98325 12.5359 2.07459 12.3412L4.46259 6.55924C4.59125 6.2519 4.7945 6.01849 5.07234 5.85899C5.35017 5.69932 5.65109 5.61949 5.97509 5.61949H7.57509ZM9.14084 5.61949H14.8093V4.34449H9.14084V5.61949ZM7.15384 12.275V11.85C7.15384 11.6375 7.22617 11.4593 7.37084 11.3155C7.51534 11.1718 7.6945 11.1 7.90834 11.1C8.122 11.1 8.30017 11.1718 8.44284 11.3155C8.5855 11.4593 8.65684 11.6375 8.65684 11.85V12.275H15.3433V11.85C15.3433 11.6375 15.4162 11.4593 15.5618 11.3155C15.7073 11.1718 15.8869 11.1 16.1006 11.1C16.3144 11.1 16.4922 11.1718 16.6338 11.3155C16.7755 11.4593 16.8463 11.6375 16.8463 11.85V12.275H20.0213L17.9586 7.32874H6.04184L3.97884 12.275H7.15384ZM7.15384 13.775H3.55384V18.4462H20.4463V13.775H16.8463V14.2C16.8463 14.4125 16.774 14.5906 16.6293 14.7342C16.4848 14.8781 16.3057 14.95 16.0918 14.95C15.8782 14.95 15.7 14.8781 15.5573 14.7342C15.4147 14.5906 15.3433 14.4125 15.3433 14.2V13.775H8.65684V14.2C8.65684 14.4125 8.584 14.5906 8.43834 14.7342C8.29284 14.8781 8.11325 14.95 7.89959 14.95C7.68575 14.95 7.508 14.8781 7.36634 14.7342C7.22467 14.5906 7.15384 14.4125 7.15384 14.2V13.775Z" fill="#000"/>
  </symbol>
  <symbol id="checkbook" viewBox="0 0 24 24">
    <path d="M6.69784 14.8352H14.0673C14.3163 14.8352 14.5033 14.7576 14.6283 14.6022C14.7533 14.4471 14.8158 14.2762 14.8158 14.0897C14.8158 13.9034 14.7533 13.7311 14.6283 13.5727C14.5033 13.4144 14.3163 13.3352 14.0673 13.3352H6.69784C6.48617 13.3352 6.30842 13.4076 6.16459 13.5522C6.02092 13.6967 5.94909 13.8759 5.94909 14.0897C5.94909 14.3034 6.02092 14.4811 6.16459 14.6227C6.30842 14.7644 6.48617 14.8352 6.69784 14.8352ZM6.69909 10.4272H10.9741C11.1866 10.4272 11.3647 10.3549 11.5083 10.2102C11.6522 10.0657 11.7241 9.88658 11.7241 9.67275C11.7241 9.45908 11.6522 9.28141 11.5083 9.13975C11.3647 8.99808 11.1866 8.92725 10.9741 8.92725H6.69909C6.48659 8.92725 6.30842 8.9995 6.16459 9.144C6.02092 9.28866 5.94909 9.46783 5.94909 9.6815C5.94909 9.89533 6.02092 10.0731 6.16459 10.2147C6.30842 10.3564 6.48659 10.4272 6.69909 10.4272ZM3.55384 19.0777C3.08134 19.0777 2.67934 18.912 2.34784 18.5805C2.01634 18.249 1.85059 17.847 1.85059 17.3745V6.488C1.85059 6.01383 2.01634 5.61041 2.34784 5.27775C2.67934 4.94508 3.08134 4.77875 3.55384 4.77875H20.4463C20.9205 4.77875 21.3239 4.94508 21.6566 5.27775C21.9893 5.61041 22.1556 6.01383 22.1556 6.488V8.8675C22.1556 9.10783 22.0722 9.30983 21.9053 9.4735C21.7383 9.63716 21.5343 9.719 21.2931 9.719C21.0518 9.719 20.8503 9.63716 20.6886 9.4735C20.5271 9.30983 20.4463 9.10783 20.4463 8.8675V6.488H3.55384V17.3495H11.0001C11.2404 17.3495 11.4424 17.4317 11.6061 17.5962C11.7699 17.7607 11.8518 17.9638 11.8518 18.2055C11.8518 18.4472 11.7699 18.6529 11.6061 18.8227C11.4424 18.9927 11.2404 19.0777 11.0001 19.0777H3.55384ZM23.0126 11.9162C23.1198 12.0236 23.1733 12.1547 23.1733 12.3095C23.1733 12.4643 23.1188 12.5944 23.0096 12.6997L22.1056 13.6097L20.7121 12.2162L21.6691 11.2532C21.7686 11.1499 21.882 11.0982 22.0093 11.0982C22.1367 11.0982 22.2501 11.1499 22.3496 11.2532L23.0126 11.9162ZM21.4376 14.2777L14.8626 20.8527C14.7701 20.9441 14.6747 21.0084 14.5763 21.0457C14.4778 21.0831 14.3762 21.1017 14.2713 21.1017H13.6371C13.5251 21.1017 13.4266 21.0592 13.3416 20.9742C13.2568 20.8892 13.2143 20.7907 13.2143 20.6787V20.0505C13.2143 19.9457 13.2339 19.8436 13.2731 19.7442C13.3124 19.6449 13.3778 19.5499 13.4691 19.4592L20.0441 12.8842L21.4376 14.2777Z" fill="#000"/>
  </symbol>
  <symbol id="delete" viewBox="0 0 24 24">
    <path d="M6.4776 21.1495C6.00343 21.1495 5.60002 20.9837 5.26735 20.6523C4.93468 20.3207 4.76835 19.9187 4.76835 19.4462V5.29775H4.49335C4.25285 5.29775 4.05077 5.2155 3.8871 5.051C3.72344 4.8865 3.6416 4.68342 3.6416 4.44175C3.6416 4.20008 3.72344 3.9985 3.8871 3.837C4.05077 3.67533 4.25285 3.5945 4.49335 3.5945H8.5986C8.5986 3.35 8.68052 3.14592 8.84435 2.98225C9.00802 2.81875 9.21002 2.737 9.45035 2.737H14.5444C14.7847 2.737 14.9868 2.81992 15.1506 2.98575C15.3143 3.15175 15.3961 3.35467 15.3961 3.5945H19.5074C19.7479 3.5945 19.9499 3.67675 20.1136 3.84125C20.2773 4.00575 20.3591 4.20883 20.3591 4.4505C20.3591 4.69217 20.2773 4.89383 20.1136 5.0555C19.9499 5.217 19.7479 5.29775 19.5074 5.29775H19.2324V19.4462C19.2324 19.9187 19.066 20.3207 18.7334 20.6523C18.4007 20.9837 17.9973 21.1495 17.5231 21.1495H6.4776ZM17.5231 5.29775H6.4776V19.4462H17.5231V5.29775ZM9.90285 17.344C10.1305 17.344 10.3202 17.2669 10.4719 17.1128C10.6235 16.9584 10.6994 16.7696 10.6994 16.5462V8.16675C10.6994 7.94342 10.6218 7.75467 10.4666 7.6005C10.3114 7.44617 10.1216 7.369 9.8971 7.369C9.66744 7.369 9.47677 7.44617 9.3251 7.6005C9.17343 7.75467 9.0976 7.94342 9.0976 8.16675V16.5462C9.0976 16.7696 9.17485 16.9584 9.32935 17.1128C9.48402 17.2669 9.67519 17.344 9.90285 17.344ZM14.1109 17.344C14.3357 17.344 14.5249 17.2669 14.6786 17.1128C14.8323 16.9584 14.9091 16.7696 14.9091 16.5462V8.16675C14.9091 7.94342 14.831 7.75467 14.6749 7.6005C14.5187 7.44617 14.3276 7.369 14.1016 7.369C13.8754 7.369 13.6855 7.44617 13.5319 7.6005C13.3782 7.75467 13.3014 7.94342 13.3014 8.16675V16.5462C13.3014 16.7696 13.38 16.9584 13.5374 17.1128C13.6947 17.2669 13.8859 17.344 14.1109 17.344Z" fill="#000"/>
  </symbol>
  <symbol id="arrow-back-ios-new" viewBox="0 0 24 24">
    <path d="M9.35554 12L17.1588 19.8032C17.358 20.0066 17.4585 20.2607 17.4605 20.5655C17.4625 20.8703 17.362 21.1327 17.1588 21.3527C16.9388 21.5687 16.6764 21.6767 16.3715 21.6767C16.0667 21.6767 15.8063 21.5687 15.5903 21.3527L7.43104 13.1935C7.26104 13.0235 7.13779 12.8349 7.06129 12.6277C6.98462 12.4204 6.94629 12.2112 6.94629 12C6.94629 11.7888 6.98462 11.5796 7.06129 11.3722C7.13779 11.1651 7.26104 10.9765 7.43104 10.8065L15.6153 2.62824C15.8313 2.40824 16.0865 2.30149 16.381 2.30799C16.6755 2.31432 16.9348 2.42741 17.1588 2.64724C17.358 2.86724 17.4617 3.12549 17.47 3.42199C17.4784 3.71849 17.3746 3.97674 17.1588 4.19674L9.35554 12Z" fill="#000"/>
  </symbol>
  <symbol id="arrow-forward-ios" viewBox="0 0 24 24">
    <path d="M14.6319 11.95L6.8287 4.14674C6.62537 3.9434 6.52278 3.69032 6.52095 3.38749C6.51895 3.08465 6.61953 2.82524 6.8227 2.60924C7.0427 2.38924 7.30512 2.27924 7.60995 2.27924C7.91478 2.27924 8.1752 2.38924 8.3912 2.60924L16.5504 10.7565C16.7204 10.9265 16.8437 11.1151 16.9202 11.3222C16.9969 11.5296 17.0352 11.7388 17.0352 11.95C17.0352 12.1612 16.9969 12.3704 16.9202 12.5777C16.8437 12.7849 16.7204 12.9735 16.5504 13.1435L8.3722 21.3217C8.1522 21.5417 7.89495 21.6476 7.60045 21.6392C7.30595 21.6309 7.0487 21.5167 6.8287 21.2967C6.62537 21.0767 6.51953 20.8195 6.5112 20.525C6.50287 20.2305 6.6087 19.9732 6.8287 19.7532L14.6319 11.95Z" fill="#000"/>
  </symbol>
  <symbol id="star" viewBox="0 0 24 24">
    <path d="M8.15834 17.7555L11.9996 15.4592L15.8408 17.7805L14.8088 13.432L18.1871 10.4917L13.7328 10.1037L11.9996 5.99948L10.2663 10.0847L5.81208 10.4667L9.19034 13.401L8.15834 17.7555ZM11.9996 17.4425L7.33758 20.2542C7.18042 20.3496 7.01684 20.3921 6.84684 20.3817C6.677 20.3714 6.52575 20.3186 6.39309 20.2232C6.26042 20.1281 6.16192 20.0048 6.09758 19.8535C6.03342 19.7023 6.01992 19.5314 6.05708 19.3407L7.28809 14.0287L3.17633 10.4417C3.027 10.3132 2.93583 10.1682 2.90283 10.0065C2.86983 9.84499 2.874 9.68757 2.91533 9.53423C2.95267 9.3809 3.03867 9.25149 3.17333 9.14599C3.30783 9.04032 3.47042 8.97915 3.66108 8.96248L9.09784 8.48748L11.2038 3.46949C11.2785 3.29565 11.3915 3.16623 11.5428 3.08123C11.694 2.99623 11.8463 2.95374 11.9996 2.95374C12.1529 2.95374 12.3052 2.99623 12.4563 3.08123C12.6077 3.16623 12.7207 3.29565 12.7953 3.46949L14.9013 8.48748L20.3441 8.96248C20.5308 8.97915 20.6913 9.04032 20.8258 9.14599C20.9605 9.25149 21.0465 9.3809 21.0838 9.53423C21.1252 9.68757 21.1293 9.84499 21.0963 10.0065C21.0633 10.1682 20.9722 10.3132 20.8228 10.4417L16.7111 14.0287L17.9421 19.3407C17.9793 19.5314 17.9658 19.7023 17.9016 19.8535C17.8373 20.0048 17.7388 20.1281 17.6061 20.2232C17.4734 20.3186 17.3222 20.3714 17.1523 20.3817C16.9823 20.3921 16.8188 20.3496 16.6616 20.2542L11.9996 17.4425Z" fill="#000"/>
  </symbol>
  <symbol id="star-half" viewBox="0 0 24 24">
    <path d="M11.9996 5.99948V15.4592L15.8408 17.7805L14.8088 13.432L18.1871 10.4917L13.7328 10.1037L11.9996 5.99948ZM11.9996 17.4425L7.33758 20.2542C7.18042 20.3496 7.01684 20.3921 6.84684 20.3817C6.677 20.3714 6.52575 20.3186 6.39309 20.2232C6.26042 20.1281 6.16192 20.0048 6.09758 19.8535C6.03342 19.7023 6.01992 19.5314 6.05708 19.3407L7.28809 14.0287L3.17633 10.4417C3.027 10.3132 2.93583 10.1682 2.90283 10.0065C2.86983 9.84499 2.874 9.68757 2.91533 9.53423C2.95267 9.3809 3.03867 9.25149 3.17333 9.14599C3.30783 9.04032 3.47042 8.97915 3.66108 8.96248L9.09784 8.48748L11.2038 3.46949C11.2785 3.29565 11.3915 3.16623 11.5428 3.08123C11.694 2.99623 11.8463 2.95374 11.9996 2.95374C12.1529 2.95374 12.3052 2.99623 12.4563 3.08123C12.6077 3.16623 12.7207 3.29565 12.7953 3.46949L14.9013 8.48748L20.3441 8.96248C20.5308 8.97915 20.6913 9.04032 20.8258 9.14599C20.9605 9.25149 21.0465 9.3809 21.0838 9.53423C21.1252 9.68757 21.1293 9.84499 21.0963 10.0065C21.0633 10.1682 20.9722 10.3132 20.8228 10.4417L16.7111 14.0287L17.9421 19.3407C17.9793 19.5314 17.9658 19.7023 17.9016 19.8535C17.8373 20.0048 17.7388 20.1281 17.6061 20.2232C17.4734 20.3186 17.3222 20.3714 17.1523 20.3817C16.9823 20.3921 16.8188 20.3496 16.6616 20.2542L11.9996 17.4425Z" fill="#000"/>
  </symbol>
  <symbol id="star-filled" viewBox="0 0 24 24">
    <path d="M11.9996 17.4425L7.33758 20.2542C7.18042 20.3496 7.01684 20.3921 6.84684 20.3817C6.677 20.3714 6.52575 20.3186 6.39309 20.2232C6.26042 20.1281 6.16192 20.0048 6.09758 19.8535C6.03342 19.7023 6.01992 19.5314 6.05708 19.3407L7.28809 14.0287L3.17633 10.4417C3.027 10.3132 2.93583 10.1682 2.90283 10.0065C2.86983 9.84499 2.874 9.68757 2.91533 9.53423C2.95267 9.3809 3.03867 9.25149 3.17333 9.14599C3.30783 9.04032 3.47042 8.97915 3.66108 8.96248L9.09784 8.48748L11.2038 3.46949C11.2785 3.29565 11.3915 3.16623 11.5428 3.08123C11.694 2.99623 11.8463 2.95374 11.9996 2.95374C12.1529 2.95374 12.3052 2.99623 12.4563 3.08123C12.6077 3.16623 12.7207 3.29565 12.7953 3.46949L14.9013 8.48748L20.3441 8.96248C20.5308 8.97915 20.6913 9.04032 20.8258 9.14599C20.9605 9.25149 21.0465 9.3809 21.0838 9.53423C21.1252 9.68757 21.1293 9.84499 21.0963 10.0065C21.0633 10.1682 20.9722 10.3132 20.8228 10.4417L16.7111 14.0287L17.9421 19.3407C17.9793 19.5314 17.9658 19.7023 17.9016 19.8535C17.8373 20.0048 17.7388 20.1281 17.6061 20.2232C17.4734 20.3186 17.3222 20.3714 17.1523 20.3817C16.9823 20.3921 16.8188 20.3496 16.6616 20.2542L11.9996 17.4425Z" fill="#000"/>
  </symbol>
  <symbol id="icon-Vector" viewBox="0 0 55 32">
<path d="M26.468 30.53c-0.512 0-0.995-0.095-1.448-0.283s-0.89-0.492-1.307-0.91l-22.601-22.601c-0.777-0.777-1.147-1.705-1.109-2.785s0.446-2.008 1.223-2.785c0.777-0.777 1.706-1.166 2.785-1.166s2.008 0.389 2.785 1.166l19.672 19.786 19.786-19.786c0.777-0.777 1.686-1.147 2.728-1.109s1.951 0.446 2.728 1.223 1.166 1.706 1.166 2.785c0 1.080-0.389 2.008-1.166 2.785l-22.487 22.487c-0.418 0.418-0.853 0.721-1.307 0.91s-0.936 0.283-1.448 0.283z"></path>
</symbol>
<symbol id="icon-logo" viewBox="0 0 162 26">
  <path d="M31.8016 20.7712H38.8765V18.9324H31.8016V20.7712ZM32.4528 10.4511H37.7065C37.8583 10.4511 37.9911 10.3941 38.105 10.2801C38.2188 10.1661 38.2757 10.0331 38.2757 9.88109C38.2757 9.72891 38.2188 9.59503 38.105 9.47945C37.9911 9.36404 37.8583 9.30634 37.7065 9.30634H32.4528C32.2959 9.30634 32.1607 9.36378 32.0472 9.47866C31.9337 9.59354 31.877 9.72768 31.877 9.88109C31.877 10.0343 31.9337 10.1677 32.0472 10.2812C32.1607 10.3945 32.2959 10.4511 32.4528 10.4511ZM32.4528 7.7804H37.7065C37.8583 7.7804 37.9911 7.72366 38.105 7.61018C38.2188 7.4967 38.2757 7.36264 38.2757 7.20801C38.2757 7.0532 38.2188 6.91906 38.105 6.80558C37.9911 6.6921 37.8583 6.63535 37.7065 6.63535H32.4528C32.2959 6.63535 32.1607 6.69236 32.0472 6.80636C31.9337 6.92019 31.877 7.05303 31.877 7.20486C31.877 7.36159 31.9337 7.4967 32.0472 7.61018C32.1607 7.72366 32.2959 7.7804 32.4528 7.7804ZM42.5478 11.7645V10.0692H45.0428V7.01756H42.5478V5.32193H44.9485C45.4071 5.32193 45.8054 5.4763 46.1434 5.78504C46.4812 6.09361 46.6711 6.47091 46.7132 6.91695V7.70501H49.0458C49.2847 7.70501 49.4862 7.78723 49.6505 7.95167C49.8146 8.11611 49.8966 8.31794 49.8966 8.55716C49.8966 8.78324 49.8146 8.98034 49.6505 9.14846C49.4862 9.31641 49.2847 9.40038 49.0458 9.40038H46.7006V10.1884C46.6587 10.6303 46.4697 11.0035 46.1337 11.308C45.7976 11.6124 45.4025 11.7645 44.9485 11.7645H42.5478ZM38.3511 17.2371H36.6557V12.2899H40.8587V4.79656H31.9274C31.1919 4.79656 30.5702 5.05049 30.0624 5.55835C29.5545 6.0662 29.3006 6.68789 29.3006 7.42341V9.66306C29.3006 10.3986 29.5545 11.0203 30.0624 11.5281C30.5702 12.036 31.1919 12.2899 31.9274 12.2899H34.0289V17.2371H32.327V13.9792H31.8016C30.6333 13.9498 29.6407 13.5153 28.8238 12.6755C28.007 11.8356 27.5986 10.8315 27.5986 9.66306V7.42341C27.5986 6.23537 28.0225 5.21694 28.8703 4.36812C29.7179 3.5193 30.7369 3.09489 31.9274 3.09489H40.7518C41.25 3.09489 41.6739 3.26966 42.0235 3.61921C42.373 3.96875 42.5478 4.39264 42.5478 4.89086V12.1959C42.5478 12.6939 42.373 13.1178 42.0235 13.4675C41.6739 13.8171 41.25 13.9918 40.7518 13.9918H38.3511V17.2371ZM31.4454 22.4732C31.0703 22.4732 30.7533 22.3417 30.4945 22.0789C30.2356 21.816 30.1062 21.4989 30.1062 21.1277V18.5762C30.1062 18.2043 30.2356 17.8881 30.4945 17.6277C30.7533 17.3673 31.0703 17.2371 31.4454 17.2371H39.2327C39.6066 17.2371 39.9242 17.3673 40.1857 17.6277C40.4473 17.8881 40.5782 18.2043 40.5782 18.5762V21.1277C40.5782 21.4989 40.4473 21.816 40.1857 22.0789C39.9242 22.3417 39.6066 22.4732 39.2327 22.4732H31.4454Z" fill="black"/>
</symbol>
<svg id="icon-custom-logo" viewBox="0 0 162 26" fill="none" xmlns="http://www.w3.org/2000/svg">
<path d="M31.8016 20.7712H38.8765V18.9324H31.8016V20.7712ZM32.4528 10.4511H37.7065C37.8583 10.4511 37.9911 10.3941 38.105 10.2801C38.2188 10.1661 38.2757 10.0331 38.2757 9.88108C38.2757 9.7289 38.2188 9.59502 38.105 9.47944C37.9911 9.36403 37.8583 9.30633 37.7065 9.30633H32.4528C32.2959 9.30633 32.1607 9.36377 32.0472 9.47865C31.9337 9.59353 31.877 9.72767 31.877 9.88108C31.877 10.0343 31.9337 10.1677 32.0472 10.2812C32.1607 10.3945 32.2959 10.4511 32.4528 10.4511ZM32.4528 7.78039H37.7065C37.8583 7.78039 37.9911 7.72365 38.105 7.61017C38.2188 7.49669 38.2757 7.36264 38.2757 7.208C38.2757 7.05319 38.2188 6.91905 38.105 6.80557C37.9911 6.69209 37.8583 6.63535 37.7065 6.63535H32.4528C32.2959 6.63535 32.1607 6.69235 32.0472 6.80635C31.9337 6.92019 31.877 7.05302 31.877 7.20485C31.877 7.36158 31.9337 7.49669 32.0472 7.61017C32.1607 7.72365 32.2959 7.78039 32.4528 7.78039ZM42.5478 11.7645V10.0692H45.0428V7.01755H42.5478V5.32192H44.9485C45.4071 5.32192 45.8054 5.47629 46.1434 5.78504C46.4812 6.0936 46.6711 6.47091 46.7132 6.91695V7.705H49.0458C49.2847 7.705 49.4862 7.78722 49.6505 7.95166C49.8146 8.1161 49.8966 8.31793 49.8966 8.55715C49.8966 8.78324 49.8146 8.98034 49.6505 9.14846C49.4862 9.3164 49.2847 9.40037 49.0458 9.40037H46.7006V10.1884C46.6587 10.6303 46.4697 11.0034 46.1337 11.308C45.7976 11.6124 45.4025 11.7645 44.9485 11.7645H42.5478ZM38.3511 17.2371H36.6557V12.2899H40.8587V4.79655H31.9274C31.1919 4.79655 30.5702 5.05048 30.0624 5.55834C29.5545 6.0662 29.3006 6.68788 29.3006 7.4234V9.66305C29.3006 10.3986 29.5545 11.0203 30.0624 11.5281C30.5702 12.036 31.1919 12.2899 31.9274 12.2899H34.0289V17.2371H32.327V13.9792H31.8016C30.6333 13.9498 29.6407 13.5152 28.8238 12.6755C28.007 11.8356 27.5986 10.8315 27.5986 9.66305V7.4234C27.5986 6.23537 28.0225 5.21694 28.8703 4.36811C29.7179 3.51929 30.7369 3.09488 31.9274 3.09488H40.7518C41.25 3.09488 41.6739 3.26965 42.0235 3.6192C42.373 3.96875 42.5478 4.39263 42.5478 4.89086V12.1959C42.5478 12.6939 42.373 13.1178 42.0235 13.4675C41.6739 13.8171 41.25 13.9918 40.7518 13.9918H38.3511V17.2371ZM31.4454 22.4732C31.0703 22.4732 30.7533 22.3417 30.4945 22.0789C30.2356 21.816 30.1062 21.4989 30.1062 21.1277V18.5762C30.1062 18.2043 30.2356 17.8881 30.4945 17.6277C30.7533 17.3673 31.0703 17.2371 31.4454 17.2371H39.2327C39.6066 17.2371 39.9242 17.3673 40.1857 17.6277C40.4473 17.8881 40.5782 18.2043 40.5782 18.5762V21.1277C40.5782 21.4989 40.4473 21.816 40.1857 22.0789C39.9242 22.3417 39.6066 22.4732 39.2327 22.4732H31.4454Z" fill="black"/>
<path d="M131.377 7.22234V16.7704C131.377 17.2442 131.499 17.59 131.742 17.8078C131.999 18.0255 132.338 18.1344 132.761 18.1344C133.106 18.1344 133.407 18.0831 133.664 17.9807C133.92 17.8654 134.157 17.7117 134.374 17.5196L134.835 19.0181C134.541 19.2742 134.176 19.4791 133.74 19.6328C133.318 19.7737 132.844 19.8442 132.319 19.8442C131.768 19.8442 131.262 19.7545 130.801 19.5752C130.34 19.3959 129.981 19.1077 129.725 18.7107C129.469 18.3009 129.335 17.7693 129.322 17.1162V7.79868L131.377 7.22234ZM134.682 10.0464V11.6602H127.478V10.0464H134.682Z" fill="black"/>
<path d="M119.701 10.0464L122.409 14.1576L122.794 14.2153L126.694 19.652H124.254L121.43 15.4256L120.988 15.2719L117.222 10.0464H119.701ZM126.636 10.0464L122.871 15.195L122.448 15.1758L119.374 19.652H117.03L121.122 14.1768L121.526 14.2153L124.273 10.0464H126.636Z" fill="black"/>
<path d="M111.909 19.8442C110.948 19.8442 110.103 19.6456 109.373 19.2486C108.643 18.8516 108.073 18.2816 107.663 17.5388C107.266 16.7832 107.067 15.8866 107.067 14.8492C107.067 13.8118 107.266 12.9217 107.663 12.1789C108.073 11.4232 108.636 10.8469 109.354 10.4498C110.071 10.0528 110.884 9.85429 111.793 9.85429C112.728 9.85429 113.522 10.0464 114.176 10.4306C114.829 10.8149 115.328 11.34 115.674 12.006C116.02 12.6719 116.193 13.4276 116.193 14.2729C116.193 14.5034 116.186 14.7211 116.174 14.9261C116.161 15.131 116.142 15.3103 116.116 15.464H108.393V13.8887H115.213L114.195 14.196C114.195 13.3251 113.977 12.6591 113.542 12.1981C113.106 11.7242 112.511 11.4872 111.755 11.4872C111.204 11.4872 110.724 11.6153 110.314 11.8715C109.904 12.1276 109.59 12.5118 109.373 13.0242C109.155 13.5236 109.046 14.1384 109.046 14.8684C109.046 15.5857 109.161 16.194 109.392 16.6935C109.622 17.193 109.949 17.5708 110.372 17.827C110.794 18.0831 111.294 18.2112 111.87 18.2112C112.511 18.2112 113.029 18.0895 113.426 17.8462C113.823 17.6028 114.137 17.2634 114.368 16.828L116.001 17.5964C115.77 18.0575 115.456 18.4609 115.059 18.8068C114.675 19.1397 114.214 19.3959 113.676 19.5752C113.138 19.7545 112.549 19.8442 111.909 19.8442Z" fill="black"/>
<path d="M104.541 6.9726V19.652H102.101L97.2021 11.6602L95.9725 9.41243H95.9533L96.0302 11.468V19.652H94.1475V6.9726H96.5681L101.448 14.9453L102.696 17.2314H102.716L102.639 15.1566V6.9726H104.541Z" fill="black"/>
<path d="M90.0654 5.72386V16.9625C90.0654 17.4363 90.1486 17.7629 90.3151 17.9422C90.4816 18.1216 90.757 18.2112 91.1412 18.2112C91.3717 18.2112 91.5639 18.1984 91.7175 18.1728C91.884 18.1344 92.089 18.0703 92.3323 17.9807L92.1018 19.5176C91.884 19.62 91.6343 19.6969 91.3525 19.7481C91.0708 19.8121 90.789 19.8442 90.5072 19.8442C89.6491 19.8442 89.0152 19.6264 88.6053 19.191C88.2083 18.7427 88.0098 18.0575 88.0098 17.1354V5.72386H90.0654Z" fill="black"/>
<path d="M80.9086 9.85429C81.8436 9.85429 82.6696 10.0528 83.3869 10.4498C84.1041 10.8469 84.6612 11.4232 85.0583 12.1789C85.4681 12.9217 85.673 13.8118 85.673 14.8492C85.673 15.8866 85.4681 16.7832 85.0583 17.5388C84.6612 18.2816 84.1041 18.8516 83.3869 19.2486C82.6696 19.6456 81.8436 19.8442 80.9086 19.8442C79.9737 19.8442 79.1476 19.6456 78.4304 19.2486C77.7131 18.8516 77.1496 18.2816 76.7398 17.5388C76.3299 16.7832 76.125 15.8866 76.125 14.8492C76.125 13.8118 76.3299 12.9217 76.7398 12.1789C77.1496 11.4232 77.7131 10.8469 78.4304 10.4498C79.1476 10.0528 79.9737 9.85429 80.9086 9.85429ZM80.9086 11.468C80.3323 11.468 79.8392 11.6025 79.4293 11.8715C79.0323 12.1276 78.7249 12.5054 78.5072 13.0049C78.2895 13.5044 78.1806 14.1192 78.1806 14.8492C78.1806 15.5664 78.2895 16.1812 78.5072 16.6935C78.7249 17.193 79.0323 17.5772 79.4293 17.8462C79.8392 18.1023 80.3323 18.2304 80.9086 18.2304C81.485 18.2304 81.9716 18.1023 82.3687 17.8462C82.7657 17.5772 83.0731 17.193 83.2908 16.6935C83.5085 16.1812 83.6174 15.5664 83.6174 14.8492C83.6174 14.1192 83.5085 13.5044 83.2908 13.0049C83.0731 12.5054 82.7657 12.1276 82.3687 11.8715C81.9716 11.6025 81.485 11.468 80.9086 11.468Z" fill="black"/>
<path d="M69.5815 9.85429C70.5164 9.85429 71.3425 10.0528 72.0597 10.4498C72.7769 10.8469 73.3341 11.4232 73.7311 12.1789C74.1409 12.9217 74.3459 13.8118 74.3459 14.8492C74.3459 15.8866 74.1409 16.7832 73.7311 17.5388C73.3341 18.2816 72.7769 18.8516 72.0597 19.2486C71.3425 19.6456 70.5164 19.8442 69.5815 19.8442C68.6465 19.8442 67.8204 19.6456 67.1032 19.2486C66.386 18.8516 65.8225 18.2816 65.4126 17.5388C65.0028 16.7832 64.7979 15.8866 64.7979 14.8492C64.7979 13.8118 65.0028 12.9217 65.4126 12.1789C65.8225 11.4232 66.386 10.8469 67.1032 10.4498C67.8204 10.0528 68.6465 9.85429 69.5815 9.85429ZM69.5815 11.468C69.0051 11.468 68.512 11.6025 68.1022 11.8715C67.7052 12.1276 67.3978 12.5054 67.1801 13.0049C66.9623 13.5044 66.8535 14.1192 66.8535 14.8492C66.8535 15.5664 66.9623 16.1812 67.1801 16.6935C67.3978 17.193 67.7052 17.5772 68.1022 17.8462C68.512 18.1023 69.0051 18.2304 69.5815 18.2304C70.1578 18.2304 70.6445 18.1023 71.0415 17.8462C71.4386 17.5772 71.7459 17.193 71.9637 16.6935C72.1814 16.1812 72.2903 15.5664 72.2903 14.8492C72.2903 14.1192 72.1814 13.5044 71.9637 13.0049C71.7459 12.5054 71.4386 12.1276 71.0415 11.8715C70.6445 11.6025 70.1578 11.468 69.5815 11.468Z" fill="black"/>
<path d="M65.4383 6.9726V8.74003H61.0966V19.652H59.041V8.74003H54.6992V6.9726H65.4383Z" fill="black"/>
</svg>


  
</svg>
